<?xml version="1.0" standalone="no"?>
<!DOCTYPE svg PUBLIC "-//W3C//DTD SVG 20010904//EN"
 "http://www.w3.org/TR/2001/REC-SVG-20010904/DTD/svg10.dtd">
<svg version="1.0" xmlns="http://www.w3.org/2000/svg"
 width="128.000000pt" height="128.000000pt" viewBox="0 0 128.000000 128.000000"
 preserveAspectRatio="xMidYMid meet">
<metadata>
Created by potrace 1.16, written by Peter Selinger 2001-2019
</metadata>
<g transform="translate(0.000000,128.000000) scale(0.100000,-0.100000)"
fill="#000000" stroke="none">
<path d="M701 1254 c-19 -24 -21 -40 -21 -161 0 -121 -2 -134 -16 -129 -9 4
-48 11 -85 16 -121 17 -256 -13 -353 -78 l-46 -31 0 30 c0 17 9 42 20 56 39
50 11 113 -50 113 -61 0 -89 -63 -50 -113 15 -19 20 -40 20 -86 0 -50 -5 -67
-31 -105 -62 -93 -82 -159 -87 -292 -3 -94 -1 -134 13 -180 33 -115 102 -196
210 -244 86 -39 149 -50 288 -50 190 0 305 36 395 123 130 125 159 376 67 572
-15 31 -25 58 -24 59 2 2 23 15 46 30 39 23 52 26 141 26 145 0 142 -5 142
236 0 257 29 234 -302 234 l-257 0 -20 -26z m519 -34 c18 -18 20 -33 20 -173
0 -197 4 -191 -130 -195 -102 -4 -102 -4 -184 -53 -44 -27 -84 -49 -88 -49 -5
0 -8 15 -8 34 0 50 -9 66 -37 66 -13 0 -33 5 -44 10 -18 10 -19 23 -19 185 0
155 2 175 18 184 10 6 105 11 235 11 204 0 218 -1 237 -20z m-578 -300 c29 -8
38 -17 43 -40 8 -35 48 -70 81 -70 20 0 23 -5 26 -46 4 -61 23 -75 72 -51 l36
17 25 -50 c35 -68 55 -152 55 -227 0 -270 -156 -406 -465 -407 -292 0 -436
104 -467 337 -21 154 32 315 138 421 61 61 148 108 229 125 57 11 172 7 227
-9z"/>
<path d="M792 1133 c3 -16 21 -18 191 -21 182 -2 187 -2 187 18 0 19 -6 20
-191 20 -176 0 -190 -1 -187 -17z"/>
<path d="M233 679 c-49 -24 -109 -87 -129 -135 -8 -18 -14 -62 -14 -98 0 -115
76 -214 188 -246 62 -17 419 -13 481 6 96 28 181 140 181 236 0 95 -58 190
-141 232 -53 26 -54 26 -288 26 -219 0 -239 -2 -278 -21z"/>
</g>
</svg>
